<svg xmlns="http://www.w3.org/2000/svg" width="36" height="38" viewBox="0 0 36 38">
  <g id="Group_97" data-name="Group 97" transform="translate(0 -61)">
    <g id="Polygon_1" data-name="Polygon 1" transform="translate(0 70)" fill="none">
      <path d="M13.546,3.02a1,1,0,0,1,1.907,0l2.37,7.5a1,1,0,0,0,.652.652l7.5,2.37a1,1,0,0,1,0,1.907l-7.5,2.37a1,1,0,0,0-.652.652l-2.37,7.5a1,1,0,0,1-1.907,0l-2.37-7.5a1,1,0,0,0-.652-.652l-7.5-2.37a1,1,0,0,1,0-1.907l7.5-2.37a1,1,0,0,0,.652-.652Z" stroke="none"/>
      <path d="M 14.50000095367432 5.645378112792969 L 12.79767036437988 11.03609085083008 C 12.53293037414551 11.8743896484375 11.8743896484375 12.53293037414551 11.03606033325195 12.79767990112305 L 5.645380020141602 14.5 L 11.03609085083008 16.20232963562012 C 11.8743896484375 16.46706962585449 12.53293037414551 17.1256103515625 12.79767990112305 17.96393966674805 L 14.5 23.35461807250977 L 16.20232963562012 17.96390914916992 C 16.46706962585449 17.1256103515625 17.1256103515625 16.46706962585449 17.96393966674805 16.20232009887695 L 23.35461807250977 14.5 L 17.96390914916992 12.79767036437988 C 17.1256103515625 12.53293037414551 16.46706962585449 11.8743896484375 16.20232009887695 11.03606033325195 L 14.50000095367432 5.645378112792969 M 14.5 2.320808410644531 C 14.90322494506836 2.320808410644531 15.30644989013672 2.553764343261719 15.45357990264893 3.019680023193359 L 17.82341003417969 10.52413940429688 C 17.92156982421875 10.8349609375 18.1650390625 11.07843017578125 18.47586059570312 11.17658996582031 L 25.98031997680664 13.54642009735107 C 26.91213989257812 13.84068012237549 26.91213989257812 15.15931987762451 25.98031997680664 15.45357990264893 L 18.47586059570312 17.82341003417969 C 18.1650390625 17.92156982421875 17.92156982421875 18.1650390625 17.82341003417969 18.47586059570312 L 15.45357990264893 25.98031997680664 C 15.15931987762451 26.91213989257812 13.84068012237549 26.91213989257812 13.54642009735107 25.98031997680664 L 11.17658996582031 18.47586059570312 C 11.07843017578125 18.1650390625 10.8349609375 17.92156982421875 10.52413940429688 17.82341003417969 L 3.019680023193359 15.45357990264893 C 2.087850570678711 15.15931987762451 2.087850570678711 13.84068012237549 3.019680023193359 13.54642009735107 L 10.52413940429688 11.17658996582031 C 10.8349609375 11.07843017578125 11.07843017578125 10.8349609375 11.17658996582031 10.52413940429688 L 13.54642009735107 3.019680023193359 C 13.69355010986328 2.553764343261719 14.09677505493164 2.320808410644531 14.5 2.320808410644531 Z" stroke="none" fill="#878787"/>
    </g>
    <g id="Polygon_2" data-name="Polygon 2" transform="translate(16 61)" fill="none">
      <path d="M9.074,2.267a1,1,0,0,1,1.852,0l1.815,4.445a1,1,0,0,0,.548.548l4.445,1.815a1,1,0,0,1,0,1.852l-4.445,1.815a1,1,0,0,0-.548.548l-1.815,4.445a1,1,0,0,1-1.852,0L7.259,13.289a1,1,0,0,0-.548-.548L2.267,10.926a1,1,0,0,1,0-1.852L6.711,7.259a1,1,0,0,0,.548-.548Z" stroke="none"/>
      <path d="M 9.999995231628418 4.49586009979248 L 8.832610130310059 7.353949546813965 C 8.56011962890625 8.021129608154297 8.02118968963623 8.560070037841797 7.353989601135254 8.832590103149414 L 4.49586009979248 9.999999046325684 L 7.353949546813965 11.16738986968994 C 8.021160125732422 11.43988990783691 8.560110092163086 11.97883987426758 8.832590103149414 12.64600944519043 L 9.999999046325684 15.50413990020752 L 11.16738986968994 12.64604949951172 C 11.43988990783691 11.97883987426758 11.97883987426758 11.43988990783691 12.64600944519043 11.16740989685059 L 15.5041389465332 10.00000095367432 L 12.64604949951172 8.832610130310059 C 11.97883987426758 8.560110092163086 11.43988990783691 8.021160125732422 11.16740989685059 7.353989601135254 L 9.999995231628418 4.49586009979248 M 9.999999046325684 1.644630432128906 C 10.37820720672607 1.644630432128906 10.75641536712646 1.851919174194336 10.92574977874756 2.266500473022461 L 12.74118995666504 6.711179733276367 C 12.84276008605957 6.959870338439941 13.04013061523438 7.15723991394043 13.28882026672363 7.258810043334961 L 17.73349952697754 9.074250221252441 C 18.56266021728516 9.412919998168945 18.56266021728516 10.58708000183105 17.73349952697754 10.92574977874756 L 13.28882026672363 12.74118995666504 C 13.04013061523438 12.84276008605957 12.84276008605957 13.04013061523438 12.74118995666504 13.28882026672363 L 10.92574977874756 17.73349952697754 C 10.58708095550537 18.56266021728516 9.412920951843262 18.56265830993652 9.074239730834961 17.73349952697754 L 7.258810043334961 13.28882026672363 C 7.15723991394043 13.04013061523438 6.959870338439941 12.84276008605957 6.711179733276367 12.74118995666504 L 2.266500473022461 10.92574977874756 C 1.437339782714844 10.58708000183105 1.437339782714844 9.412919998168945 2.266500473022461 9.074239730834961 L 6.711179733276367 7.258810043334961 C 6.959870338439941 7.157230377197266 7.15723991394043 6.959870338439941 7.258810043334961 6.711179733276367 L 9.074239730834961 2.266500473022461 C 9.243579864501953 1.851919174194336 9.621789932250977 1.644630432128906 9.999999046325684 1.644630432128906 Z" stroke="none" fill="#878787"/>
    </g>
  </g>
</svg>
